<svg width="36" height="34" viewBox="0 0 36 34" fill="none" xmlns="http://www.w3.org/2000/svg">
<path d="M32.5667 33.5L20.4917 21.95C19.5333 22.6833 18.4313 23.2639 17.1854 23.6917C15.9396 24.1194 14.6139 24.3333 13.2083 24.3333C9.72639 24.3333 6.77983 23.1796 4.36867 20.872C1.9575 18.5644 0.751279 15.746 0.750001 12.4167C0.748723 9.08733 1.95495 6.26889 4.36867 3.96133C6.78239 1.65378 9.72895 0.5 13.2083 0.5C16.6877 0.5 19.6349 1.65378 22.0499 3.96133C24.4649 6.26889 25.6705 9.08733 25.6667 12.4167C25.6667 13.7611 25.4431 15.0292 24.9958 16.2208C24.5486 17.4125 23.9417 18.4667 23.175 19.3833L35.25 30.9333L32.5667 33.5ZM13.2083 20.6667C15.6042 20.6667 17.6409 19.8649 19.3187 18.2613C20.9964 16.6578 21.8346 14.7096 21.8333 12.4167C21.8321 10.1238 20.9938 8.17617 19.3187 6.57383C17.6435 4.9715 15.6067 4.16911 13.2083 4.16667C10.8099 4.16422 8.77381 4.96661 7.09992 6.57383C5.42603 8.18106 4.58717 10.1287 4.58333 12.4167C4.5795 14.7047 5.41836 16.6529 7.09992 18.2613C8.78147 19.8698 10.8176 20.6716 13.2083 20.6667Z" fill="black"/>
</svg>
